<svg width="299" height="61" viewBox="0 0 299 61" fill="none" xmlns="http://www.w3.org/2000/svg">
<g clip-path="url(#clip0_1_200)">
<path d="M5.85679 58.5679C6.24423 58.5962 6.63166 58.6245 7.01627 58.6528C7.0191 58.6358 7.02193 58.6188 7.02759 58.6019C6.89467 58.5623 6.76175 58.5255 6.55248 58.4633C6.72216 58.435 6.81266 58.4209 6.86639 58.4124C5.95577 58.2823 5.0197 58.1494 4.05535 58.0136C4.03556 58.3954 3.99879 58.797 3.99597 59.1957C3.99314 59.7613 3.74145 60.2223 3.40209 60.638C3.04859 61.0735 2.60459 61.1244 2.19736 60.7257C1.52147 60.0639 1.08312 59.3004 1.28108 58.2823C1.40552 57.6319 1.43945 56.9673 1.51015 56.3197C1.21321 56.1613 1.16514 56.331 1.13968 56.5289C1.06616 57.0747 0.995457 57.6205 0.921929 58.1664C0.887993 58.172 0.851229 58.1748 0.817293 58.1805C0.675893 57.5159 0.534492 56.8513 0.387436 56.15C0.313908 56.1358 0.19796 56.1161 0 56.0793C0.186648 56.0623 0.294112 56.051 0.33936 56.0482C0.48076 54.4362 0.613676 52.8525 0.755077 51.2717C0.921929 49.4052 1.10009 47.5415 1.26694 45.6751C1.3942 44.2582 1.51015 42.8414 1.6261 41.4218C1.73639 40.0841 1.85517 38.7436 1.93718 37.4032C2.06161 35.3868 2.17191 33.3676 2.26806 31.3512C2.32462 30.155 2.34159 28.9587 2.36421 27.7597C2.38966 26.4503 2.40663 25.1381 2.40946 23.8288C2.40946 23.6393 2.31331 23.4498 2.20867 23.2716C2.01637 30.3954 1.65721 37.4965 1.11989 44.5891C1.16231 43.7577 1.20756 42.9262 1.24432 42.092C1.32633 40.1746 1.414 38.2572 1.48187 36.3398C1.58085 33.6645 1.66852 30.9921 1.75619 28.3168C1.82972 26.0714 1.89193 23.8259 1.95981 21.5777C2.0503 18.6083 2.13797 15.6417 2.23412 12.6723C2.28785 11.0236 2.32179 9.37483 2.43208 7.73176C2.50844 6.60905 2.7064 5.49482 2.8478 4.37493C2.95809 3.48976 3.07687 2.60743 3.16736 1.72226C3.19281 1.46774 3.25503 1.36028 3.52935 1.37724C3.71599 1.38856 3.9083 1.332 4.09495 1.2924C4.56722 1.19908 4.85002 1.33765 4.90093 1.8071C4.96597 2.43209 4.93769 3.06556 4.949 3.69621C4.949 3.84609 4.949 3.99597 4.949 4.16283C5.33078 4.10061 5.45239 3.90831 5.54571 3.60005C5.79458 2.77145 6.07172 1.9485 6.39128 1.14535C6.51572 0.83144 6.75044 0.540156 6.98799 0.291292C7.41785 -0.158361 7.92123 -0.107457 8.15596 0.460972C8.39068 1.02657 8.50097 1.64308 8.6452 2.24261C8.70459 2.49148 8.70459 2.75448 8.72721 2.96093C9.9376 2.80539 11.1282 2.61874 12.3244 2.51127C13.5292 2.40381 14.7056 2.57349 15.8764 3.10233C15.4211 2.65833 14.2164 2.18888 12.924 2.07859C11.8974 1.99092 10.8567 2.06162 9.77075 2.06162C9.91215 1.99092 10.0253 1.91739 10.1497 1.8778C13.4839 0.848408 16.558 1.29523 19.2728 3.56612C21.6964 5.5938 23.0228 8.23232 23.4441 11.3403C24.2473 17.2565 20.7547 22.2338 15.8594 24.2275C14.9007 24.6178 13.9025 24.9062 12.924 25.2428C12.842 25.271 12.7571 25.2993 12.7317 25.3078C13.9109 25.667 15.1553 25.9695 16.343 26.4164C20.9357 28.1415 24.202 31.2523 25.9215 35.8817C27.3128 39.6316 27.3722 43.4296 26.275 47.2785C25.4011 50.3469 23.7439 52.8271 21.1619 54.7162C19.1823 56.167 17.1066 57.4198 14.7565 58.1664C13.1446 58.6782 11.476 58.7517 9.80185 58.7546C8.73004 58.7546 7.65823 58.715 6.58924 58.6839C6.34321 58.6754 6.1 58.6273 5.85679 58.599C5.85679 58.5849 5.85679 58.5708 5.85962 58.5566L5.85679 58.5679ZM8.24928 26.7501C8.2408 26.866 8.23514 26.9424 8.22949 27.0216C8.14747 28.3734 8.08243 29.7251 7.98062 31.0769C7.87881 32.4372 7.73459 33.7975 7.62429 35.1577C7.52248 36.4275 7.43482 37.7001 7.34715 38.9727C7.21423 40.9212 7.09263 42.8697 6.9484 44.8154C6.86356 45.9748 6.74478 47.1315 6.63449 48.2881C6.544 49.2101 6.39694 50.1263 6.35452 51.0483C6.28948 52.4566 6.2923 53.8706 6.2612 55.2818C6.25554 55.6042 6.22726 55.9266 6.20746 56.2688C6.31493 56.2688 6.37997 56.2688 6.44502 56.2688C7.97214 56.2009 9.47663 55.9803 10.95 55.5844C14.6773 54.5804 17.7203 52.6065 19.813 49.2977C21.1846 47.1287 21.7869 44.7362 21.9821 42.1938C22.1744 39.6627 21.6116 37.3381 20.3616 35.1549C19.0268 32.8246 17.2565 30.8818 15.0733 29.332C13.0399 27.8898 10.7549 27.0696 8.24928 26.7501ZM8.33412 24.1851C8.37937 24.1851 8.41331 24.1907 8.44724 24.1851C8.51229 24.1738 8.58016 24.1568 8.6452 24.1398C10.6361 23.6619 12.3584 22.6834 13.9562 21.4193C17.3187 18.7553 18.925 14.5529 17.7457 10.3562C17.2112 8.45008 16.2384 6.82963 14.5586 5.7154C13.8713 5.26009 13.1361 4.87831 12.4432 4.47673C12.545 4.46542 12.6977 4.44845 12.8815 4.42866C12.1548 3.9479 9.71136 3.5746 8.82902 3.77256C8.76963 6.018 8.71307 8.25212 8.6452 10.4834C8.54622 13.7893 8.42745 17.0953 8.33978 20.4012C8.30584 21.654 8.33412 22.9068 8.33412 24.1851ZM20.5794 52.5443C20.9866 51.8684 21.3684 51.2349 21.7473 50.6014C22.9549 48.5851 23.8118 46.4443 24.0239 44.0801C24.0663 43.5965 24.12 43.1101 23.973 42.6406C23.939 42.6406 23.9051 42.635 23.8712 42.6321C23.7807 43.2713 23.6902 43.9076 23.5912 44.6146C23.4837 44.4873 23.4413 44.4392 23.3819 44.3685C22.9521 46.5008 22.0782 48.4182 20.9244 50.214C20.421 50.9974 19.8469 51.7242 19.1145 52.3067C18.9363 52.4481 18.7157 52.5386 18.5121 52.6517C18.4782 52.6065 18.4442 52.5613 18.4103 52.516C18.5969 52.352 18.7836 52.188 18.9985 52.0013C18.5291 52.3209 18.0964 52.6206 17.658 52.9091C15.9924 53.9979 14.2786 54.9848 12.3697 55.6042C10.4551 56.2263 8.49249 56.5261 6.48461 56.5855C6.37149 56.5883 6.18767 56.6703 6.15939 56.7524C6.03496 57.1426 5.95577 57.547 5.85679 57.9599C5.89073 57.9684 5.94446 57.9938 5.99819 57.9967C7.48855 58.0985 8.97891 58.1126 10.4608 57.9175C11.4675 57.7846 12.446 57.5668 13.4274 57.2416C16.2667 56.3027 18.7553 54.8717 20.7688 52.6433C20.8537 52.5499 20.9272 52.4481 21.0064 52.352C20.9923 52.3378 20.9753 52.3265 20.9612 52.3124C20.8424 52.3803 20.7264 52.451 20.5737 52.5386L20.5794 52.5443ZM5.02536 56.4017C5.13848 56.3084 5.20352 56.2801 5.20635 56.2461C5.59944 50.412 5.98971 44.575 6.37714 38.7408C6.33755 38.7408 6.29796 38.7352 6.25837 38.7323C5.84831 44.5891 5.44108 50.4459 5.02536 56.4017ZM1.54975 56.1981C1.7166 53.6076 1.88062 51.0681 2.04465 48.5257C2.02768 48.5257 2.00788 48.5257 1.99091 48.5257C1.73922 51.0568 1.48753 53.5878 1.23301 56.1443C1.31219 56.1585 1.40834 56.1754 1.54975 56.1981ZM2.27089 44.1338C2.64984 41.3369 2.93547 35.7318 2.7771 35.1408C2.60742 38.1526 2.43774 41.1418 2.27089 44.1338ZM5.18938 56.9362C5.18938 56.9362 5.19504 56.9362 5.2007 56.9362C5.2007 56.8344 5.21201 56.7326 5.19504 56.6336C5.18656 56.5827 5.13 56.5374 5.09606 56.4893C5.06212 56.5374 4.99991 56.5798 4.99425 56.6307C4.96314 57.0012 4.93486 57.3717 4.92355 57.7422C4.92355 57.7902 4.99991 57.844 5.04233 57.8949C5.07344 57.844 5.12434 57.7959 5.13 57.745C5.15545 57.4763 5.17242 57.2077 5.18938 56.9362ZM12.9268 58.1126C12.924 58.0787 12.9183 58.0448 12.9155 58.0108C11.8522 58.1437 10.7888 58.2738 9.7255 58.4067C9.7255 58.4322 9.73115 58.4576 9.73398 58.4831L12.9268 58.1126ZM9.32958 58.4831C9.32958 58.4831 9.32958 58.4605 9.32675 58.4492H7.62429C7.62429 58.4492 7.62429 58.4718 7.62429 58.4831H9.32958Z" fill="black"/>
</g>
<path d="M69.9825 17.0549V21.4719H62.5193V42H57.2731V21.4719H49.776V17.0549H69.9825ZM89.326 31.169V42H84.4012V30.7798C84.4012 29.787 84.232 28.9859 83.8935 28.3767C83.4535 27.5192 82.6186 27.0905 81.3889 27.0905C80.114 27.0905 79.1437 27.5192 78.4781 28.3767C77.8237 29.2228 77.4965 30.4357 77.4965 32.0152V42H72.6903V17.1395H77.4965V25.9566C78.196 24.8848 79.0027 24.1402 79.9165 23.7227C80.8417 23.294 81.812 23.0797 82.8274 23.0797C83.9669 23.0797 84.9992 23.2771 85.9244 23.672C86.8608 24.0669 87.628 24.6705 88.2259 25.4828C88.7336 26.171 89.0439 26.8818 89.1567 27.6151C89.2695 28.3372 89.326 29.5218 89.326 31.169ZM109.634 36.5845C109.51 37.6789 108.94 38.7902 107.925 39.9184C106.345 41.7123 104.134 42.6092 101.291 42.6092C98.9441 42.6092 96.8738 41.8533 95.0799 40.3415C93.286 38.8297 92.3891 36.3702 92.3891 32.9629C92.3891 29.77 93.1958 27.3218 94.8091 25.6182C96.4338 23.9145 98.5379 23.0627 101.122 23.0627C102.656 23.0627 104.038 23.3504 105.268 23.9258C106.498 24.5012 107.513 25.4094 108.314 26.6505C109.036 27.7449 109.504 29.0141 109.719 30.4583C109.843 31.3044 109.894 32.5229 109.871 34.1137H97.2461C97.3138 35.964 97.8948 37.2615 98.9892 38.0061C99.6549 38.4687 100.456 38.6999 101.392 38.6999C102.385 38.6999 103.192 38.4179 103.812 37.8538C104.151 37.5491 104.45 37.1261 104.709 36.5845H109.634ZM104.862 30.9321C104.783 29.6572 104.393 28.6926 103.694 28.0382C103.006 27.3726 102.148 27.0397 101.122 27.0397C100.005 27.0397 99.1359 27.3895 98.5153 28.089C97.9061 28.7885 97.5225 29.7362 97.3646 30.9321H104.862ZM124.916 42H113.611V17.0549H125.728C128.786 17.1001 130.952 17.9857 132.227 19.7119C132.994 20.7724 133.378 22.0417 133.378 23.5197C133.378 25.0428 132.994 26.2669 132.227 27.192C131.798 27.711 131.166 28.1849 130.331 28.6136C131.606 29.0762 132.565 29.8095 133.208 30.8136C133.863 31.8178 134.19 33.0362 134.19 34.4691C134.19 35.9471 133.818 37.2727 133.073 38.4461C132.599 39.2246 132.007 39.8789 131.296 40.4092C130.495 41.0184 129.547 41.4359 128.453 41.6615C127.37 41.8872 126.191 42 124.916 42ZM124.797 31.0167H118.586V37.6676H124.713C125.807 37.6676 126.659 37.5209 127.268 37.2276C128.374 36.6861 128.927 35.6481 128.927 34.1137C128.927 32.8162 128.391 31.9249 127.319 31.4398C126.721 31.169 125.88 31.028 124.797 31.0167ZM127.387 26.2613C128.064 25.8551 128.402 25.1274 128.402 24.0781C128.402 22.9161 127.951 22.1489 127.048 21.7766C126.27 21.5171 125.277 21.3873 124.07 21.3873H118.586V26.8874H124.713C125.807 26.8874 126.698 26.6787 127.387 26.2613ZM138.285 17.0549H143.108V42H138.285V17.0549ZM152.789 23.5535V42H147.898V23.5535H152.789ZM152.789 16.9026V21.3535H147.898V16.9026H152.789ZM170.186 24.3997C171.63 25.3248 172.459 26.9156 172.674 29.1721H167.85C167.783 28.5516 167.608 28.0608 167.326 27.6997C166.796 27.0454 165.893 26.7182 164.618 26.7182C163.569 26.7182 162.819 26.8818 162.367 27.209C161.927 27.5361 161.707 27.9197 161.707 28.3598C161.707 28.9126 161.944 29.3131 162.418 29.5613C162.892 29.8208 164.567 30.2665 167.444 30.8983C169.362 31.3495 170.801 32.0321 171.76 32.946C172.707 33.8711 173.181 35.0276 173.181 36.4153C173.181 38.243 172.499 39.7379 171.134 40.9C169.78 42.0508 167.681 42.6262 164.838 42.6262C161.939 42.6262 159.795 42.0169 158.407 40.7984C157.031 39.5687 156.343 38.0061 156.343 36.1107H161.233C161.335 36.9681 161.555 37.5774 161.893 37.9384C162.491 38.5815 163.597 38.903 165.21 38.903C166.158 38.903 166.908 38.762 167.461 38.4799C168.025 38.1979 168.307 37.7748 168.307 37.2107C168.307 36.6691 168.082 36.2573 167.63 35.9753C167.179 35.6932 165.504 35.2081 162.604 34.5199C160.517 34.0009 159.045 33.3522 158.187 32.5737C157.33 31.8065 156.901 30.7008 156.901 29.2567C156.901 27.5531 157.567 26.092 158.898 24.8735C160.241 23.6438 162.125 23.0289 164.55 23.0289C166.852 23.0289 168.73 23.4858 170.186 24.3997ZM189.479 24.3997C190.923 25.3248 191.752 26.9156 191.966 29.1721H187.143C187.075 28.5516 186.901 28.0608 186.618 27.6997C186.088 27.0454 185.186 26.7182 183.911 26.7182C182.861 26.7182 182.111 26.8818 181.66 27.209C181.22 27.5361 181 27.9197 181 28.3598C181 28.9126 181.237 29.3131 181.711 29.5613C182.185 29.8208 183.86 30.2665 186.737 30.8983C188.655 31.3495 190.093 32.0321 191.052 32.946C192 33.8711 192.474 35.0276 192.474 36.4153C192.474 38.243 191.791 39.7379 190.426 40.9C189.072 42.0508 186.974 42.6262 184.131 42.6262C181.231 42.6262 179.088 42.0169 177.7 40.7984C176.323 39.5687 175.635 38.0061 175.635 36.1107H180.526C180.628 36.9681 180.848 37.5774 181.186 37.9384C181.784 38.5815 182.89 38.903 184.503 38.903C185.451 38.903 186.201 38.762 186.754 38.4799C187.318 38.1979 187.6 37.7748 187.6 37.2107C187.6 36.6691 187.374 36.2573 186.923 35.9753C186.472 35.6932 184.796 35.2081 181.897 34.5199C179.81 34.0009 178.337 33.3522 177.48 32.5737C176.622 31.8065 176.194 30.7008 176.194 29.2567C176.194 27.5531 176.859 26.092 178.191 24.8735C179.533 23.6438 181.417 23.0289 183.843 23.0289C186.145 23.0289 188.023 23.4858 189.479 24.3997ZM211.75 41.3908C210.373 42.2369 208.681 42.66 206.673 42.66C203.367 42.66 200.659 41.5149 198.549 39.2246C196.349 36.923 195.249 33.7752 195.249 29.7813C195.249 25.7423 196.361 22.5043 198.583 20.0673C200.806 17.6303 203.745 16.4118 207.4 16.4118C210.571 16.4118 213.115 17.2185 215.033 18.8319C216.962 20.434 218.068 22.4366 218.35 24.8397H213.222C212.827 23.1361 211.863 21.9458 210.328 21.2689C209.471 20.8965 208.517 20.7104 207.468 20.7104C205.46 20.7104 203.807 21.4719 202.51 22.995C201.223 24.5069 200.58 26.7859 200.58 29.8321C200.58 32.9009 201.28 35.0727 202.679 36.3476C204.078 37.6225 205.669 38.2599 207.451 38.2599C209.2 38.2599 210.633 37.7579 211.75 36.7538C212.867 35.7383 213.555 34.4127 213.814 32.7768H208.043V28.6136H218.434V42H214.982L214.457 38.8861C213.453 40.0707 212.551 40.9056 211.75 41.3908ZM232.312 28.0044C230.371 28.0044 229.068 28.6362 228.402 29.8998C228.03 30.6106 227.844 31.7049 227.844 33.1829V42H222.987V23.5535H227.59V26.769C228.335 25.5392 228.983 24.6987 229.536 24.2474C230.439 23.4915 231.612 23.1135 233.056 23.1135C233.147 23.1135 233.22 23.1191 233.276 23.1304C233.344 23.1304 233.485 23.1361 233.699 23.1473V28.089C233.395 28.0551 233.124 28.0326 232.887 28.0213C232.65 28.01 232.458 28.0044 232.312 28.0044ZM251.926 25.8889C253.483 27.8408 254.261 30.148 254.261 32.8106C254.261 35.5183 253.483 37.8368 251.926 39.7661C250.369 41.6841 248.005 42.6431 244.835 42.6431C241.665 42.6431 239.301 41.6841 237.744 39.7661C236.187 37.8368 235.409 35.5183 235.409 32.8106C235.409 30.148 236.187 27.8408 237.744 25.8889C239.301 23.9371 241.665 22.9612 244.835 22.9612C248.005 22.9612 250.369 23.9371 251.926 25.8889ZM244.818 27.0397C243.408 27.0397 242.319 27.5418 241.552 28.5459C240.796 29.5387 240.418 30.9603 240.418 32.8106C240.418 34.6609 240.796 36.0881 241.552 37.0922C242.319 38.0963 243.408 38.5984 244.818 38.5984C246.228 38.5984 247.311 38.0963 248.067 37.0922C248.823 36.0881 249.201 34.6609 249.201 32.8106C249.201 30.9603 248.823 29.5387 248.067 28.5459C247.311 27.5418 246.228 27.0397 244.818 27.0397ZM269.56 39.3938C269.515 39.4502 269.402 39.6194 269.222 39.9015C269.041 40.1836 268.827 40.4318 268.578 40.6461C267.823 41.3231 267.089 41.7856 266.378 42.0338C265.679 42.2821 264.855 42.4062 263.908 42.4062C261.177 42.4062 259.338 41.4246 258.391 39.4615C257.86 38.3784 257.595 36.782 257.595 34.6722V23.5535H262.537V34.6722C262.537 35.7214 262.661 36.5112 262.909 37.0414C263.349 37.9779 264.212 38.4461 265.498 38.4461C267.146 38.4461 268.274 37.7804 268.883 36.4491C269.199 35.7271 269.357 34.7737 269.357 33.5891V23.5535H274.248V42H269.56V39.3938ZM294.37 25.5335C295.859 27.1243 296.604 29.4598 296.604 32.5398C296.604 35.7891 295.87 38.2656 294.404 39.9692C292.948 41.6728 291.07 42.5246 288.768 42.5246C287.301 42.5246 286.083 42.158 285.113 41.4246C284.582 41.0184 284.063 40.4261 283.556 39.6476V49.2601H278.783V23.5535H283.403V26.2782C283.922 25.4771 284.475 24.8453 285.062 24.3828C286.134 23.5592 287.409 23.1473 288.886 23.1473C291.041 23.1473 292.869 23.9427 294.37 25.5335ZM291.628 32.7768C291.628 31.3552 291.301 30.0972 290.647 29.0028C290.003 27.9085 288.954 27.3613 287.499 27.3613C285.75 27.3613 284.548 28.1905 283.894 29.849C283.556 30.729 283.386 31.846 283.386 33.1998C283.386 35.3435 283.956 36.8496 285.096 37.7184C285.773 38.2261 286.574 38.4799 287.499 38.4799C288.841 38.4799 289.862 37.961 290.562 36.923C291.273 35.885 291.628 34.5029 291.628 32.7768Z" fill="black"/>
<defs>
<clipPath id="clip0_1_200">
<rect width="27.0357" height="61" fill="white"/>
</clipPath>
</defs>
</svg>
